<?xml version="1.0" encoding="UTF-8" standalone="no"?>
<!DOCTYPE svg PUBLIC "-//W3C//DTD SVG 1.1//EN" "http://www.w3.org/Graphics/SVG/1.1/DTD/svg11.dtd">
<svg width="100%" height="100%" viewBox="0 0 379 646" version="1.1" xmlns="http://www.w3.org/2000/svg" xmlns:xlink="http://www.w3.org/1999/xlink" xml:space="preserve" xmlns:serif="http://www.serif.com/" style="fill-rule:evenodd;clip-rule:evenodd;stroke-linejoin:round;stroke-miterlimit:2;">
    <g transform="matrix(1,0,0,1,-1573,-244)">
        <g transform="matrix(1.77778,0,0,1.56389,0,0)">
            <g transform="matrix(6.45048,3.60435,-3.1707,7.3327,550.239,-996.073)">
                <g transform="matrix(1,0,0,1,-70.895,9.81444)">
                    <path d="M197.299,141.459L197.209,141.439C197.086,141.39 197.026,141.252 197.076,141.129C197.684,139.623 196.862,138.234 196.066,136.888C196.001,136.779 195.936,136.668 195.873,136.56C194.78,134.689 194.154,133.078 193.902,131.486C193.448,128.619 194.412,125.842 195.342,123.156C196.481,119.871 197.558,116.766 196.249,113.521C196.199,113.398 196.258,113.26 196.381,113.211C196.503,113.16 196.643,113.221 196.693,113.344C198.07,116.752 196.914,120.088 195.796,123.312C194.883,125.943 193.942,128.662 194.375,131.412C194.618,132.941 195.226,134.502 196.287,136.318C196.35,136.428 196.414,136.535 196.478,136.644C197.294,138.023 198.217,139.584 197.522,141.308C197.482,141.402 197.394,141.459 197.299,141.459Z" style="fill:rgb(198,196,196);fill-rule:nonzero;"/>
                </g>
                <g transform="matrix(1,0,0,1,-70.895,9.81444)">
                    <path d="M196.041,113.453C196.041,113.453 195.488,114.055 195.343,114.506C195.343,114.506 195.432,114.721 195.625,114.715C195.818,114.709 195.982,114.504 196.209,114.672C196.435,114.842 196.62,114.84 196.794,114.715C196.968,114.59 197.089,114.463 197.313,114.555C197.313,114.555 197.498,114.654 197.614,114.504C197.614,114.504 197.318,113.633 196.687,113.451L196.041,113.453Z" style="fill:rgb(240,73,63);fill-rule:nonzero;"/>
                </g>
                <g transform="matrix(1,0,0,1,-70.895,9.81444)">
                    <path d="M196.024,114.496L196.274,114.584C196.452,114.717 196.583,114.732 196.73,114.627L196.791,114.582C196.901,114.5 197.015,114.414 197.169,114.414L197.354,114.453L197.365,114.459L197.482,114.471C197.401,114.271 197.132,113.705 196.672,113.562C196.587,113.564 196.218,113.572 196.083,113.568C195.965,113.705 195.593,114.144 195.463,114.498L195.616,114.605L195.777,114.56C195.849,114.529 195.931,114.496 196.024,114.496ZM196.542,114.914C196.413,114.914 196.282,114.863 196.144,114.762L196.024,114.717L195.86,114.764L195.628,114.824L195.616,114.824C195.41,114.824 195.284,114.652 195.242,114.549L195.238,114.474C195.38,114.027 195.878,113.469 195.954,113.385L196,113.349L196.075,113.348L196.176,113.349C196.366,113.349 196.684,113.342 196.684,113.342L196.717,113.346C197.396,113.541 197.705,114.432 197.717,114.469L197.701,114.572C197.637,114.654 197.548,114.697 197.446,114.697L197.268,114.654C197.139,114.605 197.07,114.648 196.922,114.758L196.858,114.805C196.756,114.877 196.65,114.914 196.542,114.914Z" style="fill:rgb(219,63,52);fill-rule:nonzero;"/>
                </g>
                <g transform="matrix(1,0,0,1,-70.895,9.81444)">
                    <path d="M196.223,113.586C196.063,113.769 195.975,114.035 195.957,114.275C195.955,114.293 196.152,113.822 196.265,113.596L196.223,113.586Z" style="fill:rgb(211,60,50);fill-rule:nonzero;"/>
                </g>
                <g transform="matrix(1,0,0,1,-70.895,9.81444)">
                    <path d="M196.356,113.514L196.31,113.519C196.187,113.76 196.11,114.123 196.175,114.389C196.179,114.404 196.293,113.795 196.356,113.514Z" style="fill:rgb(211,60,50);fill-rule:nonzero;"/>
                </g>
                <g transform="matrix(1,0,0,1,-70.895,9.81444)">
                    <path d="M196.785,113.814L196.972,113.992C196.874,113.853 196.788,113.705 196.688,113.564L196.662,113.564L196.627,113.525L196.592,113.555C196.706,113.779 196.823,114.008 196.912,114.244C196.918,114.256 196.843,113.951 196.785,113.814Z" style="fill:rgb(211,60,50);fill-rule:nonzero;"/>
                </g>
                <g transform="matrix(1,0,0,1,-70.895,9.81444)">
                    <path d="M196.54,114.696C196.459,114.696 196.374,114.658 196.274,114.584L196.024,114.496C195.931,114.496 195.849,114.529 195.777,114.56L195.616,114.605L195.463,114.498C195.555,114.247 195.769,113.954 195.928,113.755C195.974,113.774 196.026,113.79 196.083,113.802C196.011,113.951 195.969,114.118 195.957,114.275L195.957,114.276C195.961,114.276 196.063,114.034 196.162,113.816C196.174,113.818 196.186,113.82 196.199,113.821C196.15,114.012 196.134,114.22 196.175,114.389C196.18,114.389 196.236,114.099 196.29,113.829C196.32,113.831 196.35,113.832 196.38,113.832L196.438,113.83C196.534,113.827 196.627,113.815 196.713,113.795C196.785,113.942 196.854,114.092 196.912,114.244C196.915,114.244 196.842,113.948 196.785,113.814L196.972,113.992C196.919,113.918 196.871,113.842 196.822,113.765C196.865,113.751 196.905,113.735 196.942,113.717C196.945,113.715 196.948,113.714 196.951,113.712C197.243,113.939 197.419,114.316 197.482,114.471L197.365,114.459L197.354,114.453L197.169,114.414C197.015,114.414 196.901,114.5 196.791,114.582L196.73,114.627C196.666,114.673 196.604,114.696 196.54,114.696ZM196.462,113.909C196.437,113.909 196.412,113.917 196.386,113.935L196.341,113.996L196.333,114.014L196.327,114.029L196.302,114.162L196.291,114.351L196.331,114.525C196.366,114.583 196.427,114.609 196.489,114.609C196.525,114.609 196.561,114.6 196.594,114.584C196.702,114.529 196.72,114.404 196.718,114.297C196.717,114.187 196.606,113.909 196.462,113.909ZM195.857,113.964C195.852,113.964 195.846,113.965 195.84,113.967L195.681,114.158L195.626,114.287L195.616,114.308L195.61,114.512C195.621,114.518 195.632,114.521 195.644,114.521C195.739,114.521 195.837,114.3 195.861,114.248C195.881,114.203 195.952,113.964 195.857,113.964ZM196.139,114.144L196.05,114.158L195.997,114.369L196.022,114.469L196.086,114.459C196.162,114.385 196.16,114.242 196.139,114.144Z" style="fill:rgb(239,58,42);fill-rule:nonzero;"/>
                </g>
                <g transform="matrix(1,0,0,1,-70.895,9.81444)">
                    <path d="M196.541,114.804C196.439,114.804 196.329,114.763 196.209,114.672C196.143,114.623 196.083,114.606 196.025,114.606C195.885,114.606 195.762,114.711 195.625,114.715L195.617,114.715C195.429,114.715 195.343,114.506 195.343,114.506C195.429,114.239 195.656,113.921 195.828,113.704C195.858,113.723 195.891,113.74 195.928,113.755C195.769,113.954 195.555,114.247 195.463,114.498L195.616,114.605L195.777,114.56C195.849,114.529 195.931,114.496 196.024,114.496L196.274,114.584C196.374,114.658 196.459,114.696 196.54,114.696C196.604,114.696 196.666,114.673 196.73,114.627L196.791,114.582C196.901,114.5 197.015,114.414 197.169,114.414L197.354,114.453L197.365,114.459L197.482,114.471C197.419,114.316 197.243,113.939 196.951,113.712C196.989,113.693 197.022,113.672 197.05,113.65C197.432,113.969 197.614,114.504 197.614,114.504C197.564,114.568 197.501,114.587 197.446,114.587C197.373,114.587 197.313,114.555 197.313,114.555C197.26,114.533 197.212,114.523 197.168,114.523C197.029,114.523 196.927,114.62 196.794,114.715C196.713,114.773 196.63,114.804 196.541,114.804Z" style="fill:rgb(215,49,39);fill-rule:nonzero;"/>
                </g>
                <g transform="matrix(1,0,0,1,-70.895,9.81444)">
                    <path d="M195.957,114.276L195.957,114.275C195.969,114.118 196.011,113.951 196.083,113.802C196.108,113.807 196.134,113.812 196.162,113.816C196.063,114.034 195.961,114.276 195.957,114.276Z" style="fill:rgb(206,46,39);fill-rule:nonzero;"/>
                </g>
                <g transform="matrix(1,0,0,1,-70.895,9.81444)">
                    <path d="M196.175,114.389C196.134,114.22 196.15,114.012 196.199,113.821C196.228,113.825 196.259,113.828 196.29,113.829C196.236,114.099 196.18,114.389 196.175,114.389Z" style="fill:rgb(206,46,39);fill-rule:nonzero;"/>
                </g>
                <g transform="matrix(1,0,0,1,-70.895,9.81444)">
                    <path d="M196.912,114.244C196.854,114.092 196.785,113.942 196.713,113.795C196.751,113.787 196.787,113.777 196.822,113.765C196.871,113.842 196.919,113.918 196.972,113.992L196.785,113.814C196.842,113.948 196.915,114.244 196.912,114.244Z" style="fill:rgb(206,46,39);fill-rule:nonzero;"/>
                </g>
                <g transform="matrix(1,0,0,1,-70.895,9.81444)">
                    <path d="M197.111,113.443C197.117,113.613 196.814,113.762 196.435,113.775C196.056,113.789 195.744,113.66 195.737,113.49C195.731,113.32 196.034,113.17 196.413,113.156C196.792,113.144 197.105,113.271 197.111,113.443Z" style="fill:rgb(221,220,220);fill-rule:nonzero;"/>
                </g>
                <g transform="matrix(1,0,0,1,-70.895,9.81444)">
                    <path d="M196.468,113.211L196.415,113.213C196.239,113.217 196.076,113.254 195.956,113.314C195.849,113.365 195.791,113.43 195.792,113.488C195.796,113.607 196.063,113.732 196.433,113.719C196.609,113.715 196.772,113.678 196.893,113.617C196.999,113.566 197.059,113.504 197.056,113.443C197.052,113.332 196.814,113.211 196.468,113.211ZM196.38,113.832C195.983,113.832 195.689,113.689 195.683,113.492C195.679,113.387 195.759,113.289 195.906,113.215C196.041,113.148 196.221,113.109 196.412,113.101C196.835,113.086 197.159,113.234 197.165,113.439C197.169,113.545 197.09,113.644 196.942,113.717C196.808,113.783 196.628,113.824 196.438,113.83L196.38,113.832Z" style="fill:rgb(186,186,187);fill-rule:nonzero;"/>
                </g>
                <g transform="matrix(1,0,0,1,-70.895,9.81444)">
                    <path d="M196.382,113.634C196.118,113.634 195.901,113.551 195.853,113.438C195.905,113.439 195.957,113.439 196.009,113.439C196.342,113.439 196.671,113.418 196.997,113.377C196.975,113.51 196.731,113.623 196.43,113.633C196.414,113.633 196.398,113.634 196.382,113.634Z" style="fill:rgb(192,191,191);fill-rule:nonzero;"/>
                </g>
                <g transform="matrix(1,0,0,1,-70.895,9.81444)">
                    <path d="M195.644,114.521C195.632,114.521 195.621,114.518 195.61,114.512L195.616,114.308L195.626,114.287L195.681,114.158L195.84,113.967C195.846,113.965 195.852,113.964 195.857,113.964C195.952,113.964 195.881,114.203 195.861,114.248C195.837,114.3 195.739,114.521 195.644,114.521Z" style="fill:rgb(244,136,134);fill-rule:nonzero;"/>
                </g>
                <g transform="matrix(1,0,0,1,-70.895,9.81444)">
                    <path d="M196.022,114.469L195.997,114.369L196.05,114.158L196.139,114.144C196.16,114.242 196.162,114.385 196.086,114.459L196.022,114.469Z" style="fill:rgb(244,136,134);fill-rule:nonzero;"/>
                </g>
                <g transform="matrix(1,0,0,1,-70.895,9.81444)">
                    <path d="M196.489,114.609C196.427,114.609 196.366,114.583 196.331,114.525L196.291,114.351L196.302,114.162L196.327,114.029L196.333,114.014L196.341,113.996L196.386,113.935C196.412,113.917 196.437,113.909 196.462,113.909C196.606,113.909 196.717,114.187 196.718,114.297C196.72,114.404 196.702,114.529 196.594,114.584C196.561,114.6 196.525,114.609 196.489,114.609Z" style="fill:rgb(244,136,134);fill-rule:nonzero;"/>
                </g>
                <g transform="matrix(1,0,0,1,-70.895,9.81444)">
                    <path d="M207.895,98.828C207.895,105.246 202.574,113.439 196.009,113.439C189.445,113.439 184.124,105.246 184.124,98.828C184.124,92.41 189.445,87.207 196.009,87.207C202.574,87.207 207.895,92.41 207.895,98.828Z" style="fill:rgb(240,73,63);fill-rule:nonzero;"/>
                </g>
                <g transform="matrix(1,0,0,1,-70.895,9.81444)">
                    <path d="M193.562,112.547C193.193,112.443 192.84,112.287 192.504,112.101C190.266,110.853 188.492,108.805 187.316,106.545C186.103,104.547 185.207,102.275 184.986,99.944C184.774,97.7 185.328,95.379 186.334,93.373C186.83,92.381 187.455,91.432 188.264,90.667C189.088,89.886 190.094,89.275 191.138,88.836C192.548,88.242 194.073,87.945 195.599,87.945C196.357,87.945 197.116,88.018 197.862,88.164C200.108,88.606 202.308,89.68 203.9,91.347C205.41,92.926 206.307,94.965 206.591,97.119C206.732,98.188 206.719,99.278 206.572,100.346C206.408,101.529 206.041,102.648 205.683,103.785C205.302,105 204.889,106.205 204.152,107.256C203.369,108.375 202.366,109.303 201.336,110.193L201.306,110.205C200.587,110.928 199.748,111.523 198.81,111.846L198.75,111.799C198.801,111.369 199.026,111.012 199.267,110.66C199.037,110.853 198.8,111.041 198.556,111.217C198.22,111.461 197.874,111.693 197.514,111.9C197.178,112.094 196.84,112.293 196.452,112.355C196.396,112.364 196.34,112.368 196.285,112.368C195.727,112.368 195.242,111.937 194.939,111.498C194.596,111 194.378,110.426 194.025,109.935C194.047,110.385 194.134,110.881 194.297,111.289C194.447,111.662 194.661,112.023 194.699,112.432L194.652,112.478C193.744,112.365 193.191,111.578 192.512,111.049C192.769,111.598 193.278,111.98 193.615,112.478L193.562,112.547ZM195.028,88.423C192.798,88.423 190.614,89.188 188.832,90.529C185.493,93.039 184.973,98.075 185.843,101.896C186.328,104.027 187.34,106.168 189.072,107.562C190.53,108.735 192.486,109.239 194.342,109.239C194.468,109.239 194.594,109.237 194.719,109.232C196.686,109.16 198.679,108.459 200.078,107.041C200.762,106.344 201.274,105.473 201.693,104.598C202.145,103.652 202.475,102.65 202.711,101.631C203.197,99.532 203.272,97.311 202.867,95.192C202.509,93.328 201.72,91.368 200.241,90.114C198.889,88.969 197.082,88.483 195.34,88.428C195.236,88.424 195.132,88.423 195.028,88.423Z" style="fill:rgb(214,40,39);fill-rule:nonzero;"/>
                </g>
                <g transform="matrix(1,0,0,1,-70.895,9.81444)">
                    <path d="M196.009,113.439C195.941,113.439 195.873,113.438 195.805,113.437C195.767,113.436 195.728,113.434 195.689,113.433C189.273,113.173 184.124,105.141 184.124,98.828C184.124,92.41 189.445,87.207 196.009,87.207C202.574,87.207 207.895,92.41 207.895,98.828C207.895,104.871 203.177,112.489 197.145,113.358C197.105,113.363 197.065,113.369 197.025,113.374C196.69,113.417 196.351,113.439 196.009,113.439ZM195.599,87.945C194.073,87.945 192.548,88.242 191.138,88.836C190.094,89.275 189.088,89.886 188.264,90.667C187.455,91.432 186.83,92.381 186.334,93.373C185.328,95.379 184.774,97.7 184.986,99.944C185.207,102.275 186.103,104.547 187.316,106.545C188.492,108.805 190.266,110.853 192.504,112.101C192.84,112.287 193.193,112.443 193.562,112.547L193.615,112.478C193.278,111.98 192.769,111.598 192.512,111.049C193.191,111.578 193.744,112.365 194.652,112.478L194.699,112.432C194.661,112.023 194.447,111.662 194.297,111.289C194.134,110.881 194.047,110.385 194.025,109.935C194.378,110.426 194.596,111 194.939,111.498C195.242,111.937 195.727,112.368 196.285,112.368C196.34,112.368 196.396,112.364 196.452,112.355C196.84,112.293 197.178,112.094 197.514,111.9C197.874,111.693 198.22,111.461 198.556,111.217C198.8,111.041 199.037,110.853 199.267,110.66C199.026,111.012 198.801,111.369 198.75,111.799L198.81,111.846C199.748,111.523 200.587,110.928 201.306,110.205L201.336,110.193C202.366,109.303 203.369,108.375 204.152,107.256C204.889,106.205 205.302,105 205.683,103.785C206.041,102.648 206.408,101.529 206.572,100.346C206.719,99.278 206.732,98.188 206.591,97.119C206.307,94.965 205.41,92.926 203.9,91.347C202.308,89.68 200.108,88.606 197.862,88.164C197.116,88.018 196.357,87.945 195.599,87.945Z" style="fill:rgb(180,32,36);fill-rule:nonzero;"/>
                </g>
                <g transform="matrix(1,0,0,1,-70.895,9.81444)">
                    <path d="M188.709,105.313C187.733,105.313 186.953,103.383 186.712,102.732C186.311,101.648 186.082,100.366 185.981,99.215C185.877,98.016 186.085,96.586 186.359,95.416C186.557,94.571 186.976,93.664 187.424,92.924C188.799,90.656 191.5,89.059 194.17,89.059L194.272,89.059C194.864,89.068 196.163,89.226 196.622,89.776L196.746,89.983C197.115,90.955 195.696,91.677 195.042,92.066C194.116,92.616 193.141,93.102 192.318,93.807C190.954,94.977 190.058,96.592 189.695,98.344C189.412,99.713 189.492,101.117 189.518,102.506C189.531,103.176 189.828,104.906 189.013,105.25C188.91,105.293 188.808,105.313 188.709,105.313Z" style="fill:rgb(245,148,147);fill-rule:nonzero;"/>
                </g>
                <g transform="matrix(1,0,0,1,-70.895,9.81444)">
                    <path d="M190.016,107.459C189.501,107.459 188.93,106.96 188.929,106.471C188.928,105.93 189.41,105.564 189.888,105.564C190.101,105.564 190.314,105.637 190.482,105.801L190.653,106.031C190.879,106.463 190.806,107.086 190.38,107.357C190.269,107.428 190.144,107.459 190.016,107.459Z" style="fill:rgb(245,148,147);fill-rule:nonzero;"/>
                </g>
            </g>
        </g>
    </g>
</svg>
