<?xml version="1.0" encoding="UTF-8" standalone="no"?>
<!DOCTYPE svg PUBLIC "-//W3C//DTD SVG 1.1//EN" "http://www.w3.org/Graphics/SVG/1.1/DTD/svg11.dtd">
<svg width="100%" height="100%" viewBox="0 0 214 502" version="1.1" xmlns="http://www.w3.org/2000/svg" xmlns:xlink="http://www.w3.org/1999/xlink" xml:space="preserve" xmlns:serif="http://www.serif.com/" style="fill-rule:evenodd;clip-rule:evenodd;stroke-linejoin:round;stroke-miterlimit:2;">
    <g transform="matrix(1,0,0,1,-9185,-898)">
        <g transform="matrix(0.711111,0,0,2.94582,9257.74,14.8059)">
            <g transform="matrix(8.24774,4.44089e-16,7.10543e-15,1.99097,-101.574,149.139)">
                <path d="M19.869,161.213L19.732,161.183C19.547,161.103 19.457,160.877 19.533,160.678C20.452,158.244 19.209,155.996 18.008,153.822C17.908,153.644 17.81,153.465 17.715,153.289C16.065,150.264 15.119,147.656 14.739,145.084C14.054,140.445 15.509,135.953 16.914,131.609C18.634,126.295 20.261,121.273 18.282,116.027C18.208,115.828 18.296,115.601 18.482,115.523C18.667,115.441 18.878,115.539 18.954,115.736C21.033,121.252 19.286,126.646 17.599,131.861C16.221,136.117 14.799,140.515 15.455,144.963C15.82,147.435 16.737,149.959 18.339,152.898C18.435,153.074 18.533,153.25 18.631,153.426C19.861,155.654 21.256,158.18 20.205,160.969C20.147,161.119 20.012,161.213 19.869,161.213Z" style="fill:rgb(198,196,196);fill-rule:nonzero;"/>
                <path d="M17.806,117.906C17.993,117.906 18.166,117.967 18.336,118.092C18.711,118.373 18.989,118.404 19.303,118.182L19.431,118.086C19.665,117.912 19.907,117.73 20.233,117.73C20.361,117.73 20.488,117.758 20.627,117.814L20.65,117.824C20.65,117.824 20.802,117.888 20.899,117.851C20.726,117.431 20.156,116.226 19.179,115.924C18.998,115.928 18.215,115.945 17.932,115.939C17.681,116.224 16.89,117.16 16.614,117.91C16.668,117.998 16.779,118.139 16.94,118.139C17.05,118.135 17.161,118.086 17.28,118.039C17.434,117.976 17.607,117.906 17.806,117.906Z" style="fill:rgb(48,125,61);fill-rule:nonzero;"/>
                <path d="M17.84,115.693C17.84,115.693 16.667,116.967 16.362,117.93C16.362,117.93 16.548,118.383 16.958,118.371C17.367,118.355 17.717,117.924 18.196,118.281C18.675,118.637 19.069,118.637 19.438,118.371C19.809,118.105 20.065,117.838 20.538,118.031C20.538,118.031 20.927,118.24 21.176,117.922C21.176,117.922 20.551,116.074 19.21,115.689L17.84,115.693Z" style="fill:rgb(139,199,79);fill-rule:nonzero;"/>
                <path d="M17.806,118.105C17.949,118.105 18.084,118.152 18.218,118.252C18.667,118.584 19.037,118.613 19.418,118.34L19.548,118.244C19.776,118.074 19.972,117.93 20.232,117.93C20.334,117.93 20.439,117.951 20.551,117.998C20.556,118 20.675,118.064 20.819,118.064C20.947,118.064 21.054,118.014 21.136,117.916C21.066,117.722 20.439,116.084 19.206,115.724C19.139,115.728 18.509,115.742 18.129,115.742C17.961,115.742 17.885,115.74 17.85,115.734C17.712,115.889 16.686,117.045 16.4,117.928C16.431,117.994 16.606,118.334 16.94,118.334L16.957,118.334C17.093,118.33 17.22,118.277 17.355,118.223C17.498,118.164 17.647,118.105 17.806,118.105ZM18.901,118.594C18.671,118.594 18.435,118.502 18.175,118.308C18.053,118.219 17.933,118.176 17.806,118.176C17.661,118.176 17.519,118.232 17.383,118.289C17.247,118.342 17.107,118.4 16.96,118.404L16.94,118.406C16.523,118.406 16.337,117.961 16.33,117.941L16.324,117.93L16.328,117.918C16.618,117.006 17.694,115.801 17.804,115.68L17.806,115.67L17.819,115.662L17.836,115.644L17.844,115.654L17.97,115.603L17.911,115.67C17.951,115.67 18.018,115.672 18.129,115.672C18.526,115.672 19.202,115.654 19.209,115.654L19.214,115.654L19.219,115.656C20.563,116.041 21.203,117.892 21.209,117.912L21.216,117.93L21.204,117.945C21.106,118.07 20.976,118.135 20.819,118.135C20.657,118.135 20.527,118.064 20.522,118.062C20.42,118.021 20.325,118 20.232,118C19.995,118 19.809,118.139 19.592,118.301L19.46,118.398C19.275,118.529 19.092,118.594 18.901,118.594Z" style="fill:rgb(48,125,61);fill-rule:nonzero;"/>
                <path d="M17.84,115.693C17.84,115.693 16.667,116.967 16.362,117.93C16.362,117.93 16.548,118.383 16.958,118.371C17.367,118.355 17.717,117.924 18.196,118.281C18.675,118.637 19.069,118.637 19.438,118.371C19.809,118.105 20.065,117.838 20.538,118.031C20.538,118.031 20.927,118.24 21.176,117.922C21.176,117.922 20.551,116.074 19.21,115.689L17.84,115.693Z" style="fill:rgb(239,89,151);fill-rule:nonzero;"/>
                <path d="M17.806,117.998C17.974,117.998 18.128,118.053 18.281,118.166C18.691,118.471 19.013,118.502 19.357,118.254L19.484,118.16C19.717,117.986 19.937,117.822 20.232,117.822C20.348,117.822 20.466,117.848 20.591,117.9L20.606,117.904C20.606,117.906 20.704,117.957 20.819,117.957L21.012,117.888C20.877,117.543 20.278,116.158 19.19,115.832C19.07,115.836 18.487,115.848 18.129,115.848C18.021,115.848 17.946,115.848 17.894,115.846C17.674,116.094 16.794,117.115 16.515,117.918C16.566,118.012 16.709,118.228 16.94,118.228C17.069,118.224 17.189,118.176 17.316,118.125C17.468,118.062 17.626,117.998 17.806,117.998ZM18.901,118.701C18.649,118.701 18.389,118.601 18.111,118.394C18.008,118.316 17.911,118.281 17.806,118.281C17.682,118.281 17.556,118.332 17.422,118.387C17.278,118.445 17.129,118.506 16.962,118.512L16.94,118.512C16.452,118.512 16.239,118.004 16.23,117.982L16.211,117.935L16.226,117.885C16.513,116.988 17.498,115.861 17.706,115.629L17.713,115.59L17.758,115.574L17.833,115.49L17.871,115.529L18.359,115.338L18.15,115.566C18.55,115.564 19.199,115.549 19.206,115.549L19.228,115.547L19.249,115.555C20.645,115.953 21.284,117.799 21.31,117.877L21.335,117.949L21.288,118.01C21.17,118.16 21.007,118.24 20.819,118.24C20.651,118.24 20.516,118.178 20.479,118.16L20.232,118.105C20.031,118.105 19.865,118.23 19.654,118.387L19.521,118.486C19.318,118.631 19.116,118.701 18.901,118.701Z" style="fill:rgb(161,68,101);fill-rule:nonzero;"/>
                <path d="M18.9,118.42C18.708,118.42 18.508,118.335 18.281,118.166C18.128,118.053 17.974,117.998 17.806,117.998C17.626,117.998 17.468,118.062 17.316,118.125C17.189,118.176 17.069,118.224 16.94,118.228C16.709,118.228 16.566,118.012 16.515,117.918C16.704,117.374 17.168,116.731 17.517,116.295C17.642,116.355 17.791,116.403 17.959,116.437C17.787,116.835 17.672,117.303 17.661,117.435C17.661,117.436 17.661,117.436 17.662,117.436C17.671,117.437 17.889,116.923 18.098,116.461C18.126,116.466 18.156,116.47 18.185,116.473C18.076,116.944 18.064,117.425 18.125,117.678L18.126,117.678C18.136,117.678 18.255,117.062 18.369,116.489C18.432,116.492 18.495,116.494 18.561,116.494L18.681,116.494C18.884,116.486 19.082,116.461 19.264,116.419C19.437,116.772 19.583,117.089 19.689,117.367L19.689,117.368C19.691,117.368 19.539,116.742 19.418,116.459C19.52,116.599 19.805,116.839 19.815,116.839L19.814,116.838C19.704,116.68 19.601,116.517 19.498,116.355C19.588,116.326 19.673,116.292 19.751,116.254C19.789,116.235 19.825,116.215 19.858,116.195C20.527,116.735 20.908,117.622 21.012,117.888L20.819,117.957C20.704,117.957 20.606,117.906 20.606,117.904L20.591,117.9C20.466,117.848 20.348,117.822 20.232,117.822C19.937,117.822 19.717,117.986 19.484,118.16L19.357,118.254C19.203,118.364 19.054,118.42 18.9,118.42ZM18.735,116.66C18.683,116.66 18.629,116.677 18.574,116.717L18.477,116.844L18.461,116.881L18.448,116.916C18.413,117.012 18.403,117.123 18.393,117.195C18.374,117.322 18.354,117.463 18.37,117.598C18.367,117.726 18.384,117.849 18.456,117.969C18.53,118.091 18.659,118.145 18.791,118.145C18.868,118.145 18.945,118.126 19.014,118.092C19.244,117.976 19.281,117.709 19.278,117.48C19.275,117.25 19.039,116.66 18.735,116.66ZM17.452,116.78C17.441,116.78 17.428,116.782 17.414,116.785C17.246,116.83 17.151,117.051 17.079,117.189C17.031,117.273 16.99,117.367 16.961,117.463L16.942,117.508C16.893,117.617 16.786,117.849 16.927,117.937C16.95,117.952 16.974,117.958 16.998,117.958C17.199,117.958 17.408,117.491 17.46,117.379C17.503,117.285 17.652,116.78 17.452,116.78ZM17.991,117.116C17.943,117.116 17.879,117.159 17.86,117.189C17.779,117.31 17.737,117.482 17.746,117.637L17.798,117.846L17.937,117.826C18.098,117.668 18.095,117.363 18.047,117.162C18.039,117.128 18.017,117.116 17.991,117.116Z" style="fill:rgb(224,70,124);fill-rule:nonzero;"/>
                <path d="M18.903,118.56C18.686,118.56 18.453,118.472 18.196,118.281C18.056,118.177 17.928,118.14 17.806,118.14C17.508,118.14 17.248,118.36 16.958,118.371L16.942,118.371C16.543,118.371 16.362,117.93 16.362,117.93C16.542,117.361 17.025,116.684 17.39,116.225C17.429,116.25 17.471,116.273 17.517,116.295C17.168,116.731 16.704,117.374 16.515,117.918C16.566,118.012 16.709,118.228 16.94,118.228C17.069,118.224 17.189,118.176 17.316,118.125C17.468,118.062 17.626,117.998 17.806,117.998C17.974,117.998 18.128,118.053 18.281,118.166C18.508,118.335 18.708,118.42 18.9,118.42C19.054,118.42 19.203,118.364 19.357,118.254L19.484,118.16C19.717,117.986 19.937,117.822 20.232,117.822C20.348,117.822 20.466,117.848 20.591,117.9L20.606,117.904C20.606,117.906 20.704,117.957 20.819,117.957L21.012,117.888C20.908,117.622 20.527,116.735 19.858,116.195C19.903,116.168 19.944,116.14 19.981,116.111C20.792,116.787 21.176,117.922 21.176,117.922C21.068,118.059 20.935,118.098 20.817,118.098C20.663,118.098 20.538,118.031 20.538,118.031C20.425,117.985 20.325,117.965 20.232,117.965C19.936,117.965 19.72,118.169 19.438,118.371C19.267,118.494 19.091,118.56 18.903,118.56Z" style="fill:rgb(149,51,81);fill-rule:nonzero;"/>
                <path d="M17.662,117.436C17.661,117.436 17.661,117.436 17.661,117.435C17.672,117.303 17.787,116.835 17.959,116.437C18.004,116.446 18.05,116.454 18.098,116.461C17.889,116.923 17.671,117.437 17.662,117.436Z" style="fill:rgb(179,39,112);fill-rule:nonzero;"/>
                <path d="M18.126,117.678L18.125,117.678C18.064,117.425 18.076,116.944 18.185,116.473C18.245,116.48 18.306,116.485 18.369,116.489C18.255,117.062 18.136,117.678 18.126,117.678Z" style="fill:rgb(179,39,112);fill-rule:nonzero;"/>
                <path d="M19.689,117.368L19.689,117.367C19.583,117.089 19.437,116.772 19.264,116.419C19.345,116.401 19.423,116.38 19.498,116.355C19.601,116.517 19.704,116.68 19.814,116.838L19.815,116.839C19.805,116.839 19.52,116.599 19.418,116.459C19.539,116.742 19.691,117.368 19.689,117.368Z" style="fill:rgb(179,39,112);fill-rule:nonzero;"/>
                <path d="M20.11,115.672C20.124,116.033 19.481,116.348 18.675,116.377C17.872,116.406 17.21,116.135 17.197,115.771C17.184,115.408 17.827,115.094 18.631,115.064C19.435,115.037 20.097,115.308 20.11,115.672Z" style="fill:rgb(221,220,220);fill-rule:nonzero;"/>
                <path d="M18.746,115.181L18.635,115.183C18.261,115.193 17.915,115.271 17.659,115.398C17.435,115.51 17.31,115.644 17.313,115.767C17.323,116.017 17.887,116.287 18.673,116.26C19.045,116.246 19.392,116.172 19.648,116.045C19.873,115.933 19.998,115.801 19.993,115.674C19.985,115.435 19.482,115.181 18.746,115.181ZM18.561,116.494C17.717,116.494 17.095,116.193 17.081,115.775C17.073,115.553 17.242,115.344 17.556,115.189C17.842,115.049 18.221,114.963 18.626,114.949C19.523,114.916 20.211,115.23 20.227,115.666C20.233,115.89 20.066,116.097 19.751,116.254C19.466,116.392 19.086,116.478 18.681,116.494L18.561,116.494Z" style="fill:rgb(186,186,187);fill-rule:nonzero;"/>
                <path d="M18.57,116.078C18.103,116.078 17.706,115.958 17.525,115.779C17.731,115.789 17.938,115.795 18.145,115.795C18.698,115.795 19.249,115.757 19.798,115.683C19.627,115.895 19.187,116.058 18.665,116.076C18.633,116.077 18.601,116.078 18.57,116.078Z" style="fill:rgb(192,191,191);fill-rule:nonzero;"/>
                <path d="M16.998,117.958C16.974,117.958 16.95,117.952 16.927,117.937C16.786,117.849 16.893,117.617 16.942,117.508L16.961,117.463C16.99,117.367 17.031,117.273 17.079,117.189C17.151,117.051 17.246,116.83 17.414,116.785C17.428,116.782 17.441,116.78 17.452,116.78C17.652,116.78 17.503,117.285 17.46,117.379C17.408,117.491 17.199,117.958 16.998,117.958Z" style="fill:rgb(237,120,166);fill-rule:nonzero;"/>
                <path d="M17.798,117.846L17.746,117.637C17.737,117.482 17.779,117.31 17.86,117.189C17.879,117.159 17.943,117.116 17.991,117.116C18.017,117.116 18.039,117.128 18.047,117.162C18.095,117.363 18.098,117.668 17.937,117.826L17.798,117.846Z" style="fill:rgb(237,120,166);fill-rule:nonzero;"/>
                <path d="M18.791,118.145C18.659,118.145 18.53,118.091 18.456,117.969C18.384,117.849 18.367,117.726 18.37,117.598C18.354,117.463 18.374,117.322 18.393,117.195C18.403,117.123 18.413,117.012 18.448,116.916L18.461,116.881L18.477,116.844L18.574,116.717C18.629,116.677 18.683,116.66 18.735,116.66C19.039,116.66 19.275,117.25 19.278,117.48C19.281,117.709 19.244,117.976 19.014,118.092C18.945,118.126 18.868,118.145 18.791,118.145Z" style="fill:rgb(237,120,166);fill-rule:nonzero;"/>
                <path d="M36.147,93.524C36.147,103.244 28.088,115.654 18.145,115.654C8.202,115.654 0.142,103.244 0.142,93.524C0.142,83.801 8.202,75.921 18.145,75.921C28.088,75.921 36.147,83.801 36.147,93.524Z" style="fill:rgb(239,89,151);fill-rule:nonzero;"/>
                <path d="M18.145,76.062C8.296,76.062 0.283,83.895 0.283,93.524C0.283,98.33 2.244,103.797 5.528,108.148C9.11,112.896 13.591,115.51 18.145,115.51C22.698,115.51 27.178,112.896 30.761,108.148C34.045,103.797 36.005,98.33 36.005,93.524C36.005,83.895 27.993,76.062 18.145,76.062ZM18.145,115.795C13.5,115.795 8.939,113.14 5.302,108.318C1.981,103.92 0,98.389 0,93.524C0,83.739 8.139,75.778 18.145,75.778C28.149,75.778 36.289,83.739 36.289,93.524C36.289,98.389 34.308,103.92 30.988,108.318C27.35,113.14 22.788,115.795 18.145,115.795Z" style="fill:rgb(161,68,101);fill-rule:nonzero;"/>
                <path d="M14.438,114.303C13.879,114.144 13.343,113.91 12.836,113.627C9.445,111.738 6.758,108.635 4.978,105.211C3.139,102.183 1.782,98.744 1.448,95.213C1.126,91.813 1.965,88.296 3.489,85.259C4.241,83.757 5.186,82.318 6.411,81.16C7.659,79.979 9.186,79.052 10.765,78.387C12.903,77.486 15.212,77.036 17.525,77.036C18.673,77.036 19.822,77.147 20.951,77.369C24.353,78.038 27.685,79.666 30.097,82.19C32.381,84.582 33.744,87.67 34.173,90.935C34.386,92.553 34.366,94.205 34.143,95.821C33.895,97.616 33.339,99.307 32.798,101.029C32.22,102.871 31.594,104.695 30.48,106.287C29.292,107.984 27.773,109.389 26.214,110.736L26.167,110.754C25.078,111.847 23.808,112.752 22.384,113.238L22.296,113.17C22.373,112.517 22.715,111.976 23.08,111.443C22.731,111.738 22.371,112.019 22.001,112.287C21.493,112.658 20.969,113.008 20.424,113.322C19.915,113.615 19.403,113.918 18.815,114.01C18.729,114.023 18.643,114.03 18.559,114.03C17.714,114.03 16.982,113.379 16.524,112.713C16.004,111.959 15.673,111.088 15.139,110.346C15.172,111.027 15.304,111.779 15.552,112.398C15.778,112.963 16.102,113.51 16.158,114.129L16.088,114.199C14.713,114.027 13.875,112.834 12.847,112.033C13.236,112.863 14.008,113.443 14.518,114.199L14.438,114.303ZM16.657,77.76C13.28,77.76 9.972,78.92 7.274,80.95C2.216,84.754 1.428,92.379 2.746,98.17C3.48,101.398 5.013,104.638 7.637,106.75C9.846,108.528 12.809,109.292 15.621,109.292C15.811,109.292 16.001,109.288 16.19,109.281C19.169,109.172 22.189,108.111 24.307,105.959C25.343,104.906 26.12,103.586 26.753,102.262C27.439,100.828 27.938,99.311 28.295,97.768C29.033,94.586 29.147,91.224 28.531,88.015C27.991,85.192 26.794,82.222 24.554,80.323C22.507,78.587 19.768,77.851 17.129,77.767C16.972,77.762 16.815,77.76 16.657,77.76Z" style="fill:rgb(224,70,124);fill-rule:nonzero;"/>
                <path d="M18.145,115.51C13.591,115.51 9.11,112.896 5.528,108.148C2.244,103.797 0.283,98.33 0.283,93.524C0.283,83.895 8.296,76.062 18.145,76.062C27.993,76.062 36.005,83.895 36.005,93.524C36.005,98.33 34.045,103.797 30.761,108.148C27.178,112.896 22.698,115.51 18.145,115.51ZM17.525,77.036C15.212,77.036 12.903,77.486 10.765,78.387C9.186,79.052 7.659,79.979 6.411,81.16C5.186,82.318 4.241,83.757 3.489,85.259C1.965,88.296 1.126,91.813 1.448,95.213C1.782,98.744 3.139,102.183 4.978,105.211C6.758,108.635 9.445,111.738 12.836,113.627C13.343,113.91 13.879,114.144 14.438,114.303L14.518,114.199C14.008,113.443 13.236,112.863 12.847,112.033C13.875,112.834 14.713,114.027 16.088,114.199L16.158,114.129C16.102,113.51 15.778,112.963 15.552,112.398C15.304,111.779 15.172,111.027 15.139,110.346C15.673,111.088 16.004,111.959 16.524,112.713C16.982,113.379 17.714,114.03 18.559,114.03C18.643,114.03 18.729,114.023 18.815,114.01C19.403,113.918 19.915,113.615 20.424,113.322C20.969,113.008 21.493,112.658 22.001,112.287C22.371,112.019 22.731,111.738 23.08,111.443C22.715,111.976 22.373,112.517 22.296,113.17L22.384,113.238C23.808,112.752 25.078,111.847 26.167,110.754L26.214,110.736C27.773,109.389 29.292,107.984 30.48,106.287C31.594,104.695 32.22,102.871 32.798,101.029C33.339,99.307 33.895,97.616 34.143,95.821C34.366,94.205 34.386,92.553 34.173,90.935C33.744,87.67 32.381,84.582 30.097,82.19C27.685,79.666 24.353,78.038 20.951,77.369C19.822,77.147 18.673,77.036 17.525,77.036Z" style="fill:rgb(194,51,100);fill-rule:nonzero;"/>
                <path d="M18.145,115.654C8.202,115.654 0.142,103.244 0.142,93.524C0.142,83.801 8.202,75.921 18.145,75.921C28.088,75.921 36.147,83.801 36.147,93.524C36.147,103.244 28.088,115.654 18.145,115.654ZM18.145,76.062C8.296,76.062 0.283,83.895 0.283,93.524C0.283,98.33 2.244,103.797 5.528,108.148C9.11,112.896 13.591,115.51 18.145,115.51C22.698,115.51 27.178,112.896 30.761,108.148C34.045,103.797 36.005,98.33 36.005,93.524C36.005,83.895 27.993,76.062 18.145,76.062Z" style="fill:rgb(129,36,64);fill-rule:nonzero;"/>
                <path d="M7.085,103.344C5.608,103.344 4.427,100.421 4.062,99.436C3.454,97.795 3.107,95.85 2.956,94.11C2.798,92.291 3.111,90.124 3.527,88.353C3.826,87.073 4.461,85.701 5.141,84.579C7.224,81.143 11.316,78.723 15.36,78.723C15.411,78.723 15.463,78.723 15.514,78.724C16.409,78.739 18.377,78.977 19.073,79.81C19.154,79.907 19.216,80.01 19.26,80.124C19.819,81.596 17.67,82.689 16.678,83.277C15.277,84.111 13.799,84.847 12.554,85.916C10.486,87.689 9.131,90.135 8.581,92.789C8.151,94.864 8.272,96.991 8.312,99.094C8.331,100.108 8.781,102.728 7.546,103.248C7.39,103.314 7.236,103.344 7.085,103.344Z" style="fill:rgb(245,166,200);fill-rule:nonzero;"/>
                <path d="M9.064,106.594C8.286,106.594 7.421,105.838 7.419,105.099C7.418,104.281 8.149,103.725 8.874,103.725C9.197,103.725 9.519,103.835 9.774,104.082C9.877,104.182 9.963,104.303 10.033,104.431C10.374,105.086 10.264,106.031 9.619,106.439C9.449,106.547 9.26,106.594 9.064,106.594Z" style="fill:rgb(245,166,200);fill-rule:nonzero;"/>
            </g>
        </g>
    </g>
</svg>
